<svg width="20" height="20" viewBox="0 0 20 20" fill="none" xmlns="http://www.w3.org/2000/svg">
<path d="M13.825 6.31666L8.33332 11.8083L5.34166 8.82499L4.16666 9.99999L8.33332 14.1667L15 7.49999L13.825 6.31666ZM9.99999 1.66666C5.39999 1.66666 1.66666 5.39999 1.66666 9.99999C1.66666 14.6 5.39999 18.3333 9.99999 18.3333C14.6 18.3333 18.3333 14.6 18.3333 9.99999C18.3333 5.39999 14.6 1.66666 9.99999 1.66666ZM9.99999 16.6667C6.31666 16.6667 3.33332 13.6833 3.33332 9.99999C3.33332 6.31666 6.31666 3.33332 9.99999 3.33332C13.6833 3.33332 16.6667 6.31666 16.6667 9.99999C16.6667 13.6833 13.6833 16.6667 9.99999 16.6667Z" fill="#6BCB77"/>
</svg>
