<svg width="20" height="20" viewBox="0 0 20 20" fill="none" xmlns="http://www.w3.org/2000/svg">
<path d="M15.8333 6.66665L12.5 9.99998H15C15 12.7583 12.7583 15 10 15C9.15834 15 8.35834 14.7916 7.66668 14.4166L6.45001 15.6333C7.47501 16.2833 8.69168 16.6666 10 16.6666C13.6833 16.6666 16.6667 13.6833 16.6667 9.99998H19.1667L15.8333 6.66665ZM5.00001 9.99998C5.00001 7.24165 7.24168 4.99998 10 4.99998C10.8417 4.99998 11.6417 5.20831 12.3333 5.58331L13.55 4.36665C12.525 3.71665 11.3083 3.33331 10 3.33331C6.31668 3.33331 3.33334 6.31665 3.33334 9.99998H0.833344L4.16668 13.3333L7.50001 9.99998H5.00001Z" fill="#FFD93D"/>
</svg>
